<svg width="1694" height="1457" xmlns="http://www.w3.org/2000/svg" xmlns:xlink="http://www.w3.org/1999/xlink" xml:space="preserve" overflow="hidden"><defs><clipPath id="clip0"><rect x="2201" y="509" width="1694" height="1457"/></clipPath></defs><g clip-path="url(#clip0)" transform="translate(-2201 -509)"><path d="M2360.78 555 2820.45 555 3275.55 555 3735.22 555C3798.06 555 3849 605.929 3849 668.753L3849 1123.75C3849 1186.57 3798.06 1237.5 3735.22 1237.5L3389.32 1237.5 3389.32 1806.25C3389.32 1869.07 3338.38 1920 3275.55 1920L2820.45 1920C2757.62 1920 2706.68 1869.07 2706.68 1806.25L2706.68 1237.5 2360.78 1237.5C2297.94 1237.5 2247 1186.57 2247 1123.75L2247 668.753C2247 605.929 2297.94 555 2360.78 555Z" stroke="#000000" stroke-width="91.6667" stroke-miterlimit="8" fill="#A6A6A6" fill-rule="evenodd"/><path d="M2338.95 555 2974.86 555 2974.86 1011.86C2974.86 1034.77 2993.43 1053.35 3016.35 1053.35L3079.65 1053.35C3102.57 1053.35 3121.14 1034.77 3121.14 1011.86L3121.14 555 3757.05 555C3807.83 555 3849 596.16 3849 646.933L3849 1828.07C3849 1878.84 3807.83 1920 3757.05 1920L2338.95 1920C2288.17 1920 2247 1878.84 2247 1828.07L2247 1574.17 3079.65 1574.17C3102.57 1574.17 3121.14 1555.6 3121.14 1532.69L3121.14 1469.4C3121.14 1446.49 3102.57 1427.92 3079.65 1427.92L2247 1427.92 2247 646.933C2247 596.16 2288.17 555 2338.95 555Z" stroke="#000000" stroke-width="91.6667" stroke-miterlimit="8" fill="#FFFFFF" fill-rule="evenodd" fill-opacity="0.4"/></g></svg>